<svg width="32" height="32" viewBox="0 0 32 32" fill="none" xmlns="http://www.w3.org/2000/svg">
  <!-- Main Building Structure -->
  <rect x="4" y="10" width="24" height="18" rx="2" fill="url(#buildingGradient)" stroke="url(#borderGradient)" stroke-width="0.8"/>
  
  <!-- Roof/Spire -->
  <path d="M16 4L4 10H28L16 4Z" fill="url(#roofGradient)" stroke="url(#borderGradient)" stroke-width="0.8"/>
  
  <!-- Central Tower -->
  <rect x="14" y="6" width="4" height="4" fill="url(#towerGradient)" stroke="url(#borderGradient)" stroke-width="0.5"/>
  
  <!-- Cryptic Symbols/Patterns -->
  <circle cx="10" cy="16" r="1" fill="url(#symbolGradient)"/>
  <circle cx="22" cy="16" r="1" fill="url(#symbolGradient)"/>
  <circle cx="16" cy="20" r="1" fill="url(#symbolGradient)"/>
  
  <!-- Encryption Lines -->
  <path d="M8 14L10 16L8 18" stroke="url(#encryptionGradient)" stroke-width="0.8" fill="none" stroke-linecap="round"/>
  <path d="M24 14L22 16L24 18" stroke="url(#encryptionGradient)" stroke-width="0.8" fill="none" stroke-linecap="round"/>
  <path d="M14 22L16 20L18 22" stroke="url(#encryptionGradient)" stroke-width="0.8" fill="none" stroke-linecap="round"/>
  
  <!-- Vault Doors -->
  <rect x="12" y="22" width="8" height="6" rx="1" fill="url(#doorGradient)" stroke="url(#borderGradient)" stroke-width="0.5"/>
  <rect x="13" y="23.5" width="1" height="4" fill="url(#handleGradient)"/>
  <rect x="18" y="23.5" width="1" height="4" fill="url(#handleGradient)"/>
  
  <!-- Mystical Aura -->
  <circle cx="16" cy="16" r="15" fill="none" stroke="url(#auraGradient)" stroke-width="0.3" opacity="0.4"/>
  <circle cx="16" cy="16" r="13" fill="none" stroke="url(#auraGradient)" stroke-width="0.2" opacity="0.3"/>
  
  <!-- Gradients -->
  <defs>
    <linearGradient id="buildingGradient" x1="16" y1="10" x2="16" y2="28" gradientUnits="userSpaceOnUse">
      <stop stop-color="#4A148C"/>
      <stop offset="0.3" stop-color="#6A1B9A"/>
      <stop offset="0.7" stop-color="#8E24AA"/>
      <stop offset="1" stop-color="#AB47BC"/>
    </linearGradient>
    
    <linearGradient id="roofGradient" x1="16" y1="4" x2="16" y2="10" gradientUnits="userSpaceOnUse">
      <stop stop-color="#7B1FA2"/>
      <stop offset="0.5" stop-color="#9C27B0"/>
      <stop offset="1" stop-color="#BA68C8"/>
    </linearGradient>
    
    <linearGradient id="towerGradient" x1="16" y1="6" x2="16" y2="10" gradientUnits="userSpaceOnUse">
      <stop stop-color="#E1BEE7"/>
      <stop offset="1" stop-color="#F8BBD9"/>
    </linearGradient>
    
    <linearGradient id="symbolGradient" x1="0" y1="0" x2="1" y2="1" gradientUnits="userSpaceOnUse">
      <stop stop-color="#FFD700"/>
      <stop offset="1" stop-color="#FFA000"/>
    </linearGradient>
    
    <linearGradient id="encryptionGradient" x1="0" y1="0" x2="1" y2="1" gradientUnits="userSpaceOnUse">
      <stop stop-color="#00BCD4"/>
      <stop offset="1" stop-color="#0097A7"/>
    </linearGradient>
    
    <linearGradient id="doorGradient" x1="16" y1="22" x2="16" y2="28" gradientUnits="userSpaceOnUse">
      <stop stop-color="#3F51B5"/>
      <stop offset="1" stop-color="#303F9F"/>
    </linearGradient>
    
    <linearGradient id="handleGradient" x1="0" y1="0" x2="1" y2="1" gradientUnits="userSpaceOnUse">
      <stop stop-color="#FFC107"/>
      <stop offset="1" stop-color="#FF8F00"/>
    </linearGradient>
    
    <linearGradient id="borderGradient" x1="0" y1="0" x2="1" y2="1" gradientUnits="userSpaceOnUse">
      <stop stop-color="#E1BEE7"/>
      <stop offset="1" stop-color="#CE93D8"/>
    </linearGradient>
    
    <radialGradient id="auraGradient" cx="50%" cy="50%" r="50%">
      <stop offset="0%" stop-color="#9C27B0" stop-opacity="0.8"/>
      <stop offset="100%" stop-color="#673AB7" stop-opacity="0.2"/>
    </radialGradient>
  </defs>
</svg>